# xmcd
#
# Track frame offsets:
# 150
# 18735
# 48097
# 72881
# 97571
# 113673
# 136836
# 159862
# 183726
# 211863
# 236161
# 276118
#
# Disc length: 4039 seconds
#
#
# Revision: 0
# Processed by: cddbd v1.5.1PL0 Copyright (c) Steve Scherf et al.
# Submitted via: FreeRIP 2.92 
#
DISCID=980fc50c
DTITLE=Seventh Angel - Heed the Warning demo and live recordings
DYEAR=2005
DGENRE=Death Metal
TTITLE0=Forbidden Desires
TTITLE1=Seven Angels
TTITLE2=I of the Needle
TTITLE3=Heed the Warning
TTITLE4=Tormented Forever (live)
TTITLE5=Seven Angels (live)
TTITLE6=Dark Shadows (live)
TTITLE7=Dr. Hatchet (live)
TTITLE8=Woken By Silence (live)
TTITLE9=Life In All Its Emptiness (live)
TTITLE10=Katie (live)
TTITLE11=No Longer A Child (live)
EXTD=
EXTT0=Heed the Warning demo
EXTT1=Heed the Warning demo
EXTT2=Heed the Warning demo
EXTT3=Heed the Warning demo
EXTT4=
EXTT5=
EXTT6=
EXTT7=
EXTT8=
EXTT9=
EXTT10=
EXTT11=
PLAYORDER=
